<svg width="13" height="12" viewBox="0 0 13 12" fill="none" xmlns="http://www.w3.org/2000/svg">
<path d="M0.666667 12V9.16667L9.45 0.4C9.58333 0.266667 9.73333 0.166667 9.9 0.1C10.0667 0.0333333 10.2333 0 10.4 0C10.5778 0 10.7472 0.0333333 10.9083 0.1C11.0694 0.166667 11.2111 0.266667 11.3333 0.4L12.2667 1.33333C12.4 1.45556 12.5 1.59722 12.5667 1.75833C12.6333 1.91944 12.6667 2.08889 12.6667 2.26667C12.6667 2.43333 12.6333 2.6 12.5667 2.76667C12.5 2.93333 12.4 3.08333 12.2667 3.21667L3.5 12H0.666667ZM2 10.6667H2.93333L9.48333 4.13333L9.01667 3.65L8.53333 3.18333L2 9.73333V10.6667ZM9.01667 3.65L8.53333 3.18333L9.48333 4.13333L9.01667 3.65ZM7.33333 12C8.15555 12 8.91667 11.7944 9.61667 11.3833C10.3167 10.9722 10.6667 10.4 10.6667 9.66667C10.6667 9.26667 10.5611 8.92222 10.35 8.63333C10.1389 8.34444 9.85555 8.09444 9.5 7.88333L8.51667 8.86667C8.77222 8.97778 8.97222 9.1 9.11667 9.23333C9.26111 9.36667 9.33333 9.51111 9.33333 9.66667C9.33333 9.92222 9.13056 10.1528 8.725 10.3583C8.31944 10.5639 7.85556 10.6667 7.33333 10.6667C7.14444 10.6667 6.98611 10.7306 6.85833 10.8583C6.73056 10.9861 6.66667 11.1444 6.66667 11.3333C6.66667 11.5222 6.73056 11.6806 6.85833 11.8083C6.98611 11.9361 7.14444 12 7.33333 12ZM1.05 6.9L2.05 5.9C1.82778 5.81111 1.65278 5.71944 1.525 5.625C1.39722 5.53056 1.33333 5.43333 1.33333 5.33333C1.33333 5.2 1.43333 5.06667 1.63333 4.93333C1.83333 4.8 2.25556 4.59444 2.9 4.31667C3.87778 3.89444 4.52778 3.51111 4.85 3.16667C5.17222 2.82222 5.33333 2.43333 5.33333 2C5.33333 1.38889 5.08889 0.902778 4.6 0.541667C4.11111 0.180556 3.46667 0 2.66667 0C2.16667 0 1.71944 0.0888889 1.325 0.266667C0.930556 0.444444 0.627778 0.661111 0.416667 0.916667C0.294444 1.06111 0.244444 1.22222 0.266667 1.4C0.288889 1.57778 0.372222 1.72222 0.516667 1.83333C0.661111 1.95556 0.822222 2.00556 1 1.98333C1.17778 1.96111 1.32778 1.88889 1.45 1.76667C1.60556 1.61111 1.77778 1.5 1.96667 1.43333C2.15556 1.36667 2.38889 1.33333 2.66667 1.33333C3.12222 1.33333 3.45833 1.4 3.675 1.53333C3.89167 1.66667 4 1.82222 4 2C4 2.15556 3.90278 2.29722 3.70833 2.425C3.51389 2.55278 3.06667 2.77778 2.36667 3.1C1.47778 3.48889 0.861111 3.84167 0.516667 4.15833C0.172222 4.475 0 4.86667 0 5.33333C0 5.68889 0.0944444 5.99167 0.283333 6.24167C0.472222 6.49167 0.727778 6.71111 1.05 6.9Z" fill="currentColor"/>
</svg>
