<svg width="24" height="24" viewBox="0 0 24 24" fill="none" xmlns="http://www.w3.org/2000/svg">
<mask id="mask0_1776_10623" style="mask-type:alpha" maskUnits="userSpaceOnUse" x="0" y="0" width="24" height="24">
<rect width="24" height="24" fill="#D9D9D9"/>
</mask>
<g mask="url(#mask0_1776_10623)">
<path d="M10.2 13.2008L9.15 12.1508C9.28333 11.9674 9.375 11.7799 9.425 11.5883C9.475 11.3966 9.5 11.2008 9.5 11.0008C9.5 10.8008 9.475 10.6049 9.425 10.4133C9.375 10.2216 9.28333 10.0424 9.15 9.87578L10.2 8.80078C10.4667 9.11745 10.6667 9.46745 10.8 9.85078C10.9333 10.2341 11 10.6174 11 11.0008C11 11.3841 10.9333 11.7633 10.8 12.1383C10.6667 12.5133 10.4667 12.8674 10.2 13.2008ZM12.325 15.3508L11.25 14.2758C11.6667 13.8091 11.9792 13.2924 12.1875 12.7258C12.3958 12.1591 12.5 11.5841 12.5 11.0008C12.5 10.4174 12.3958 9.84661 12.1875 9.28828C11.9792 8.72995 11.6667 8.21745 11.25 7.75078L12.325 6.67578C12.8917 7.29245 13.3125 7.97161 13.5875 8.71328C13.8625 9.45495 14 10.2174 14 11.0008C14 11.7841 13.8625 12.5508 13.5875 13.3008C13.3125 14.0508 12.8917 14.7341 12.325 15.3508ZM5 12.0008C4.45 12.0008 3.97917 11.8049 3.5875 11.4133C3.19583 11.0216 3 10.5508 3 10.0008C3 9.45078 3.19583 8.97995 3.5875 8.58828C3.97917 8.19661 4.45 8.00078 5 8.00078C5.55 8.00078 6.02083 8.19661 6.4125 8.58828C6.80417 8.97995 7 9.45078 7 10.0008C7 10.5508 6.80417 11.0216 6.4125 11.4133C6.02083 11.8049 5.55 12.0008 5 12.0008ZM1 16.0008V15.4258C1 15.0258 1.10833 14.6591 1.325 14.3258C1.54167 13.9924 1.84167 13.7424 2.225 13.5758C2.65833 13.3924 3.10417 13.2508 3.5625 13.1508C4.02083 13.0508 4.5 13.0008 5 13.0008C5.5 13.0008 5.97917 13.0508 6.4375 13.1508C6.89583 13.2508 7.34167 13.3924 7.775 13.5758C8.15833 13.7424 8.45833 13.9924 8.675 14.3258C8.89167 14.6591 9 15.0258 9 15.4258V16.0008H1ZM19 12.0008C18.45 12.0008 17.9792 11.8049 17.5875 11.4133C17.1958 11.0216 17 10.5508 17 10.0008C17 9.45078 17.1958 8.97995 17.5875 8.58828C17.9792 8.19661 18.45 8.00078 19 8.00078C19.55 8.00078 20.0208 8.19661 20.4125 8.58828C20.8042 8.97995 21 9.45078 21 10.0008C21 10.5508 20.8042 11.0216 20.4125 11.4133C20.0208 11.8049 19.55 12.0008 19 12.0008ZM15 16.0008V15.4258C15 15.0258 15.1083 14.6591 15.325 14.3258C15.5417 13.9924 15.8417 13.7424 16.225 13.5758C16.6583 13.3924 17.1042 13.2508 17.5625 13.1508C18.0208 13.0508 18.5 13.0008 19 13.0008C19.5 13.0008 19.9792 13.0508 20.4375 13.1508C20.8958 13.2508 21.3417 13.3924 21.775 13.5758C22.1583 13.7424 22.4583 13.9924 22.675 14.3258C22.8917 14.6591 23 15.0258 23 15.4258V16.0008H15Z" fill="currentColor"/>
</g>
</svg>
