<svg width="24" height="24" viewBox="0 0 24 24" fill="none" xmlns="http://www.w3.org/2000/svg">
<path opacity="0.9" d="M3.32144 18.1041C2.61096 18.1041 1.94933 17.9852 1.33769 17.7472C0.9028 17.5784 0.516166 17.3584 0.177789 17.0886C-0.0419812 16.9128 -0.0617489 16.5855 0.139417 16.3882L1.2092 15.3372C1.38013 15.169 1.64467 15.1661 1.83537 15.3117C1.95863 15.4063 2.1034 15.4899 2.27026 15.5636C2.59759 15.7081 2.93364 15.7806 3.27958 15.7806C3.55981 15.7806 3.80982 15.7342 4.02959 15.6407C4.24878 15.5479 4.42204 15.4121 4.5482 15.2351C4.67437 15.0581 4.73716 14.8434 4.73716 14.5916C4.73716 14.3397 4.67146 14.125 4.54064 13.948C4.40983 13.771 4.22261 13.6358 3.97959 13.5424C3.73656 13.4489 3.44702 13.4025 3.11039 13.4025C2.92318 13.4025 2.72492 13.4141 2.51445 13.4373C2.30398 13.4606 2.14293 13.496 2.03072 13.5424L3.25051 12.0313C3.57784 11.9564 3.8697 11.8937 4.12668 11.8421C4.38366 11.791 4.61041 11.7649 4.80634 11.7649C5.311 11.7649 5.7645 11.8816 6.16625 12.1148C6.568 12.3481 6.88602 12.6818 7.11975 13.1153C7.35347 13.5493 7.47034 14.0646 7.47034 14.6618C7.47034 15.343 7.2994 15.9425 6.9587 16.4601C6.61742 16.9778 6.13601 17.3816 5.51449 17.6706C4.89414 17.9596 4.16273 18.1041 3.32144 18.1041ZM0.531283 10.2677V8.4398C0.531283 8.18156 0.740588 7.97266 0.999313 7.97266H6.75114C7.00928 7.97266 7.21917 8.18156 7.21917 8.4398V9.47041L5.15809 10.2677H0.531283ZM2.0313 13.5424V12.0452L4.2325 9.45648L7.21859 9.47041L4.94762 12.0307L2.0313 13.5424Z" fill="currentColor"/>
<path d="M23.7904 7.32322C23.6247 6.97156 23.3608 6.67096 22.9986 6.42259C22.6363 6.17422 22.2613 6.03495 21.873 6.00652C21.4846 5.9775 21.1171 6.0454 20.7712 6.20962C20.4253 6.37385 20.1328 6.62918 19.8944 6.97504C19.6613 7.31335 19.5293 7.67314 19.4991 8.0544C19.4688 8.43565 19.538 8.80066 19.7066 9.14826C19.8753 9.49644 20.1404 9.79414 20.502 10.0431C20.7317 10.2009 20.966 10.3147 21.2049 10.3855C21.2805 10.4081 21.3404 10.4655 21.3555 10.5427C21.4485 11.0151 21.4671 11.5594 21.4631 11.9749C21.4613 12.1658 21.7084 12.2424 21.8171 12.0852L23.5898 9.51443C23.8282 9.16857 23.9625 8.80531 23.9928 8.42405C24.0236 8.04163 23.9561 7.67488 23.7904 7.32322Z" fill="currentColor"/>
<path opacity="0.9" d="M20.4281 8.7785C20.3333 8.7785 20.2496 8.75819 20.1775 8.71699C20.1048 8.67579 20.0478 8.6195 20.0065 8.54812C19.9653 8.47674 19.9443 8.39666 19.9443 8.30846C19.9443 8.22025 19.9647 8.13727 20.0065 8.06589C20.0478 7.99452 20.1048 7.93765 20.1775 7.89528C20.2502 7.85292 20.3333 7.83203 20.4281 7.83203C20.5228 7.83203 20.6066 7.85292 20.6786 7.89528C20.7513 7.93765 20.8083 7.99452 20.8496 8.06589C20.8909 8.13727 20.9118 8.21793 20.9118 8.30846C20.9118 8.39898 20.8909 8.47674 20.8496 8.54812C20.8083 8.6195 20.7513 8.67579 20.6786 8.71699C20.6066 8.75819 20.5228 8.7785 20.4281 8.7785Z" fill="#CCF1F3"/>
<path opacity="0.9" d="M21.7484 8.7785C21.6536 8.7785 21.5699 8.75819 21.4978 8.71699C21.4251 8.67579 21.3681 8.6195 21.3269 8.54812C21.2856 8.47674 21.2646 8.39666 21.2646 8.30846C21.2646 8.22025 21.285 8.13727 21.3269 8.06589C21.3681 7.99452 21.4251 7.93765 21.4978 7.89528C21.5705 7.85292 21.6536 7.83203 21.7484 7.83203C21.8431 7.83203 21.9269 7.85292 21.999 7.89528C22.0716 7.93765 22.1286 7.99452 22.1699 8.06589C22.2112 8.13727 22.2321 8.21793 22.2321 8.30846C22.2321 8.39898 22.2112 8.47674 22.1699 8.54812C22.1286 8.6195 22.0716 8.67579 21.999 8.71699C21.9269 8.75819 21.8431 8.7785 21.7484 8.7785Z" fill="#CCF1F3"/>
<path opacity="0.9" d="M23.0677 8.7785C22.9729 8.7785 22.8892 8.75819 22.8171 8.71699C22.7445 8.67579 22.6875 8.6195 22.6462 8.54812C22.6049 8.47674 22.584 8.39666 22.584 8.30846C22.584 8.22025 22.6043 8.13727 22.6462 8.06589C22.6875 7.99452 22.7445 7.93765 22.8171 7.89528C22.8898 7.85292 22.9729 7.83203 23.0677 7.83203C23.1625 7.83203 23.2462 7.85292 23.3183 7.89528C23.391 7.93765 23.4479 7.99452 23.4892 8.06589C23.5305 8.13727 23.5514 8.21793 23.5514 8.30846C23.5514 8.39898 23.5305 8.47674 23.4892 8.54812C23.4479 8.6195 23.391 8.67579 23.3183 8.71699C23.2456 8.75819 23.1619 8.7785 23.0677 8.7785Z" fill="#CCF1F3"/>
<path opacity="0.9" d="M9.35557 18.1035C8.62649 18.1035 7.9695 17.9498 7.38577 17.6416C6.80146 17.3335 6.33867 16.9162 5.99796 16.3893C5.65668 15.8624 5.48633 15.2676 5.48633 14.6049C5.48633 13.8215 5.75726 13.0329 6.29971 12.2402L9.06254 8.17692C9.14975 8.04926 9.29452 7.97266 9.44918 7.97266H11.3986C11.78 7.97266 12.001 8.4044 11.7771 8.71254L9.14161 12.3446C9.03289 12.4944 8.84626 12.5657 8.66544 12.5274L8.62242 12.5181C8.28172 12.4456 8.13578 12.0336 8.36311 11.7701C8.36428 11.7684 8.36602 11.7667 8.36718 11.7649C8.51195 11.5972 8.68986 11.4666 8.89975 11.3732C9.11022 11.2804 9.38813 11.2334 9.73406 11.2334C10.3881 11.2334 10.9771 11.3848 11.5009 11.6883C12.0242 11.9918 12.4428 12.3974 12.7556 12.9058C13.069 13.4141 13.2254 13.9811 13.2254 14.6061C13.2254 15.2688 13.0545 15.8636 12.7138 16.3905C12.3725 16.9174 11.912 17.3352 11.3329 17.6428C10.7527 17.9498 10.094 18.1035 9.35557 18.1035ZM9.35557 15.7806C9.58929 15.7806 9.79744 15.7272 9.97942 15.6199C10.1614 15.5125 10.3038 15.3634 10.4067 15.1719C10.5097 14.9809 10.5608 14.7639 10.5608 14.5213C10.5608 14.2788 10.5097 14.0617 10.4067 13.8708C10.3038 13.6799 10.1614 13.5302 9.97942 13.4228C9.79744 13.3155 9.58929 13.2621 9.35557 13.2621C9.12184 13.2621 8.9137 13.3161 8.73172 13.4228C8.54974 13.5302 8.40672 13.6793 8.30439 13.8708C8.20148 14.0623 8.15032 14.2794 8.15032 14.5213C8.15032 14.7633 8.20148 14.9809 8.30439 15.1719C8.4073 15.3634 8.54974 15.5125 8.73172 15.6199C8.9137 15.7272 9.12184 15.7806 9.35557 15.7806Z" fill="currentColor"/>
<path opacity="0.9" d="M15.6724 18.1039C14.8125 18.1039 14.0479 17.8822 13.3799 17.4394C12.7113 16.9966 12.1857 16.3856 11.8025 15.6062C11.4194 14.8275 11.2275 13.939 11.2275 12.9403C11.2275 11.9416 11.4171 11.0561 11.7956 10.2814C12.1741 9.50729 12.695 8.90087 13.359 8.46217C14.0223 8.02404 14.784 7.80469 15.6445 7.80469C16.5049 7.80469 17.2823 8.02404 17.9509 8.46217C18.6189 8.90087 19.1428 9.50729 19.5213 10.2814C19.8998 11.0555 20.0893 11.9469 20.0893 12.9543C20.0893 13.9617 19.9003 14.853 19.5213 15.6271C19.1428 16.4018 18.6218 17.0077 17.9579 17.4464C17.2939 17.8851 16.5323 18.1039 15.6724 18.1039ZM15.6584 15.7252C16.0044 15.7252 16.2985 15.6178 16.5416 15.4031C16.7846 15.1884 16.9689 14.8739 17.0951 14.4584C17.2212 14.0435 17.2846 13.5421 17.2846 12.9543C17.2846 12.3664 17.2212 11.8674 17.0951 11.4571C16.9689 11.0468 16.784 10.7317 16.5416 10.5124C16.2985 10.293 15.9991 10.1833 15.6445 10.1833C15.2898 10.1833 15.0183 10.2907 14.7753 10.5054C14.5322 10.7201 14.3479 11.0323 14.2218 11.4432C14.0956 11.854 14.0322 12.3525 14.0322 12.9403C14.0322 13.5282 14.0956 14.0296 14.2218 14.4445C14.3479 14.8594 14.5322 15.1768 14.7753 15.3962C15.0177 15.6155 15.3125 15.7252 15.6584 15.7252Z" fill="currentColor"/>
</svg>
