<svg width="24" height="24" viewBox="0 0 24 24" fill="none" xmlns="http://www.w3.org/2000/svg">
<mask id="mask0_6_1397" style="mask-type:alpha" maskUnits="userSpaceOnUse" x="0" y="0" width="24" height="24">
<rect width="24" height="24" fill="#D9D9D9"/>
</mask>
<g mask="url(#mask0_6_1397)">
<path d="M5 20V12H2L12 3L16 6.6V4H19V9.3L22 12H19V20H13V14H11V20H5ZM7 18H9V12H15V18H17V10.2L12 5.7L7 10.2V18ZM10 10.025H14C14 9.49167 13.8 9.05417 13.4 8.7125C13 8.37083 12.5333 8.2 12 8.2C11.4667 8.2 11 8.37083 10.6 8.7125C10.2 9.05417 10 9.49167 10 10.025Z" fill="currentColor"/>
</g>
</svg>
